<svg 
  xmlns="http://www.w3.org/2000/svg"
  xmlns:xlink="http://www.w3.org/1999/xlink"
  width="41px" height="41px"
>
  <path fill-rule="evenodd" fill="rgb(255, 255, 255)" 
    d="M20.504,40.991 C9.203,40.991 0.008,31.797 0.008,20.495 C0.008,9.193 9.203,-0.002 20.504,-0.002 C31.806,-0.002 41.001,9.193 41.001,20.495 C41.001,31.797 31.806,40.991 20.504,40.991 ZM20.504,2.601 C10.637,2.601 2.611,10.628 2.611,20.495 C2.611,30.361 10.637,38.388 20.504,38.388 C30.371,38.388 38.398,30.361 38.398,20.495 C38.398,10.628 30.371,2.601 20.504,2.601 ZM32.178,15.141 C31.949,15.545 31.543,15.820 31.082,15.881 L24.150,16.795 L24.006,25.037 C24.006,25.037 26.623,31.424 27.279,33.401 C27.387,33.724 27.377,34.074 27.255,34.391 L27.252,34.400 C26.941,35.217 25.996,35.590 25.211,35.207 C24.880,35.046 24.621,34.768 24.483,34.426 L20.935,25.939 L17.388,34.426 C17.250,34.768 16.991,35.046 16.660,35.207 C15.875,35.590 14.930,35.217 14.619,34.400 L14.616,34.391 C14.495,34.074 14.484,33.724 14.592,33.401 C15.248,31.424 17.865,25.037 17.865,25.037 L17.721,16.795 L10.789,15.881 C10.328,15.820 9.922,15.545 9.693,15.141 L9.668,15.098 C9.309,14.464 9.461,13.664 10.028,13.207 C10.353,12.945 10.775,12.831 11.188,12.895 L19.070,14.096 L20.921,14.096 L20.950,14.096 L22.801,14.096 L30.683,12.895 C31.096,12.831 31.517,12.945 31.843,13.207 C32.410,13.664 32.562,14.464 32.203,15.098 L32.178,15.141 ZM21.022,13.518 C19.305,13.518 17.913,12.126 17.913,10.409 C17.913,8.692 19.305,7.301 21.022,7.301 C22.739,7.301 24.131,8.692 24.131,10.409 C24.131,12.126 22.739,13.518 21.022,13.518 Z"/>
</svg>