<svg 
  xmlns="http://www.w3.org/2000/svg"
  xmlns:xlink="http://www.w3.org/1999/xlink"
  width="18px" height="18px"
>
  <path fill-rule="evenodd" fill="rgb(0, 0, 0)" 
  d="M16.752,1.864 L9.939,8.755 L16.751,15.645 C17.173,16.072 17.173,16.770 16.751,17.197 C16.329,17.624 15.638,17.624 15.216,17.197 L8.516,10.420 L1.816,17.197 C1.394,17.624 0.704,17.624 0.282,17.197 C-0.141,16.770 -0.141,16.072 0.282,15.645 L7.094,8.754 L0.283,1.864 C-0.139,1.437 -0.139,0.739 0.283,0.312 C0.705,-0.115 1.395,-0.115 1.817,0.312 L8.517,7.088 L15.217,0.312 C15.639,-0.115 16.330,-0.115 16.752,0.312 C17.174,0.739 17.174,1.437 16.752,1.864 Z"/>
</svg>