<svg 
  xmlns="http://www.w3.org/2000/svg"
  xmlns:xlink="http://www.w3.org/1999/xlink"
  width="30px" height="34px"
>
  <path fill-rule="evenodd" fill="rgb(255, 255, 255)"
  d="M28.651,12.170 L23.670,18.788 L21.293,17.061 L26.274,10.443 C27.566,8.726 27.196,6.295 25.449,5.025 L23.600,3.681 C21.853,2.411 19.380,2.775 18.087,4.492 L13.106,11.110 L10.730,9.383 L15.710,2.765 C17.972,-0.241 22.300,-0.877 25.358,1.346 L27.207,2.689 C30.265,4.912 30.913,9.165 28.651,12.170 ZM21.562,10.732 L11.210,24.487 L8.833,22.760 L19.185,9.004 L21.562,10.732 ZM4.556,28.985 L6.404,30.330 C8.152,31.599 10.625,31.236 11.917,29.519 L16.898,22.900 L19.275,24.628 L14.294,31.247 C12.032,34.251 7.704,34.888 4.646,32.665 L2.798,31.322 C-0.260,29.099 -0.908,24.846 1.354,21.841 L6.335,15.222 L8.711,16.950 L3.730,23.568 C2.438,25.285 2.808,27.716 4.556,28.985 Z"/>
</svg>