<svg id="ic_file_DOC" xmlns="http://www.w3.org/2000/svg" width="161" height="198" viewBox="0 0 161 198">
  <defs>
    <style>
      .cls-1 {
        fill: #021d82;
      }

      .cls-2 {
        fill: #fff;
        fill-rule: evenodd;
      }
    </style>
  </defs>
  <rect class="cls-1" x="-0.313" y="-0.188" width="161.313" height="200.531"/>
  <path class="cls-2" d="M121.128,99.958V40.3c0.066-1.748-.288-2.093-2.037-2.028H86.515l-0.049,8.16h26.913V49.89H86.465v5.188h26.913v3.456H86.465v5.188h26.913v3.456H86.465v5.18h26.913v3.457H86.465V81h26.913v3.456H86.465v5.188h26.913V93.1H86.465l0.049,9.169h32.576c1.74,0.2,2.062-.7,2.037-1.74V99.958ZM34.182,37.281l-0.041,66,50.337,8.546V28.711Zm33.467,48-5.854-.6c-0.61-3.333-1.278-6.461-1.938-9.728L57.59,65.34,53.336,84.3l-5.178-.279L43.029,56.589l4.931-.058,3.347,18.947,3.958-19.554,5.582-.32,4.122,20.621L68.952,54.93l5.483-.205Z"/>
  <path id="DOC" class="cls-2" d="M48.829,176.489a16.735,16.735,0,0,0,5.434-.8,11.942,11.942,0,0,0,6.729-5.514,18.747,18.747,0,0,0,1.714-4.116,26.486,26.486,0,0,0,.876-4.641q0.243-2.425.243-4.853,0-2.5-.175-4.942a26.052,26.052,0,0,0-.74-4.63,16.684,16.684,0,0,0-1.616-4.058,10.768,10.768,0,0,0-2.795-3.223A13.008,13.008,0,0,0,54.2,137.59a21.338,21.338,0,0,0-6.1-.767H34.943v39.666H48.829Zm-6.466-33.433h6.213a8.612,8.612,0,0,1,3.243.65,6.464,6.464,0,0,1,2.21,1.563,7.25,7.25,0,0,1,1.373,2.242,13.832,13.832,0,0,1,.74,2.68,20.944,20.944,0,0,1,.292,2.873q0.048,1.467.049,2.825a43.986,43.986,0,0,1-.419,6.553,14.184,14.184,0,0,1-1.354,4.485,6.1,6.1,0,0,1-2.444,2.582,7.6,7.6,0,0,1-3.69.825H42.363V143.056Zm27.42,18.231a32.9,32.9,0,0,0,.75,5.048,19.865,19.865,0,0,0,1.578,4.426,11.576,11.576,0,0,0,2.688,3.514,11.961,11.961,0,0,0,4.08,2.311,20.316,20.316,0,0,0,11.529,0,11.964,11.964,0,0,0,4.08-2.311,11.577,11.577,0,0,0,2.688-3.514,19.86,19.86,0,0,0,1.578-4.426,32.927,32.927,0,0,0,.75-5.048q0.194-2.661.214-5.4,0-2.271-.175-4.63a26.752,26.752,0,0,0-.73-4.563,19.225,19.225,0,0,0-1.558-4.145,11.357,11.357,0,0,0-2.668-3.388,12.283,12.283,0,0,0-4.061-2.282,17.473,17.473,0,0,0-5.726-.834,18.289,18.289,0,0,0-5.862.834,12.533,12.533,0,0,0-4.148,2.282,11.413,11.413,0,0,0-2.717,3.388,18.609,18.609,0,0,0-1.578,4.145,27.424,27.424,0,0,0-.74,4.563q-0.185,2.358-.185,4.63Q69.588,158.627,69.783,161.287Zm22.3,1.242a16.092,16.092,0,0,1-1.12,4.737,6.249,6.249,0,0,1-2.347,2.874,8.613,8.613,0,0,1-7.946,0,6.246,6.246,0,0,1-2.347-2.874,16.083,16.083,0,0,1-1.12-4.737,64.836,64.836,0,0,1-.292-6.562,35.715,35.715,0,0,1,.3-5.339,14.591,14.591,0,0,1,1.217-4.32,7.332,7.332,0,0,1,2.366-2.893,6.346,6.346,0,0,1,3.768-1.058,7.487,7.487,0,0,1,2.775.475,6.034,6.034,0,0,1,2.074,1.359,7.428,7.428,0,0,1,1.451,2.117,13.576,13.576,0,0,1,.915,2.737,22.806,22.806,0,0,1,.477,3.262q0.136,1.758.117,3.66A64.836,64.836,0,0,1,92.082,162.529Zm40.663-12.018a17.566,17.566,0,0,0-.73-5.64,12.9,12.9,0,0,0-2.464-4.592,11.7,11.7,0,0,0-4.138-3.1,13.714,13.714,0,0,0-5.755-1.135,16.219,16.219,0,0,0-5.628.873,12.057,12.057,0,0,0-3.993,2.369,11.856,11.856,0,0,0-2.629,3.485A20.1,20.1,0,0,0,105.87,147a28.057,28.057,0,0,0-.721,4.6q-0.175,2.37-.175,4.6,0,1.767.048,3.6t0.254,3.641a30.518,30.518,0,0,0,.6,3.514,16.467,16.467,0,0,0,1.11,3.232,12.529,12.529,0,0,0,1.782,2.8,10.207,10.207,0,0,0,2.6,2.185,13.257,13.257,0,0,0,3.574,1.427,19.46,19.46,0,0,0,4.713.514,14.266,14.266,0,0,0,4.4-.631,11.292,11.292,0,0,0,3.428-1.767A10.921,10.921,0,0,0,130,171.994a15.419,15.419,0,0,0,1.675-3.466,19.557,19.557,0,0,0,.9-4.009,28.523,28.523,0,0,0,.175-4.359H125.4a27.105,27.105,0,0,1-.165,3.942,10.927,10.927,0,0,1-.906,3.359,5.872,5.872,0,0,1-1.9,2.329,5.3,5.3,0,0,1-3.165.874,5.661,5.661,0,0,1-2.931-.709,5.9,5.9,0,0,1-1.967-1.893,9.616,9.616,0,0,1-1.188-2.7,21.319,21.319,0,0,1-.613-3.136,31.55,31.55,0,0,1-.224-3.2q-0.029-1.583-.029-2.9,0-1.125.048-2.582a28.26,28.26,0,0,1,.263-2.98,20.317,20.317,0,0,1,.653-2.99,9.552,9.552,0,0,1,1.207-2.612,6.06,6.06,0,0,1,1.938-1.844,5.445,5.445,0,0,1,2.843-.7,6.01,6.01,0,0,1,2.922.641,5.069,5.069,0,0,1,1.869,1.737,7.524,7.524,0,0,1,1,2.573,17.778,17.778,0,0,1,.341,3.145h7.342Z"/>
</svg>
