<svg id="ic_file_GIF" xmlns="http://www.w3.org/2000/svg" width="161" height="198" viewBox="0 0 161 198">
  <defs>
    <style>
      .cls-1 {
        fill: #26b9ca;
      }

      .cls-2 {
        fill: #fff;
        fill-rule: evenodd;
      }
    </style>
  </defs>
  <rect class="cls-1" x="-0.313" y="-0.188" width="161.313" height="200.531"/>
  <path class="cls-2" d="M25,104L66.356,68.634l13.7,13.4,24.975-28.4L130,76.672V104H25ZM55.211,33A11.387,11.387,0,1,1,43.8,44.387,11.4,11.4,0,0,1,55.211,33Z"/>
  <path id="GIF" class="cls-2" d="M73.736,154.938H57.143v6.232h9.251a21.664,21.664,0,0,1-.4,3.553,8.7,8.7,0,0,1-1.188,3.029,6.236,6.236,0,0,1-2.3,2.116,7.754,7.754,0,0,1-3.749.8,5.756,5.756,0,0,1-5.025-2.524,9.009,9.009,0,0,1-1.237-2.631,20.5,20.5,0,0,1-.652-3.077,29.092,29.092,0,0,1-.253-3.174q-0.039-1.583-.039-2.922,0-1.418.068-3a24.994,24.994,0,0,1,.331-3.126,16.444,16.444,0,0,1,.779-2.941,7.99,7.99,0,0,1,1.422-2.456,6.382,6.382,0,0,1,2.259-1.67,7.555,7.555,0,0,1,3.282-.573,6.994,6.994,0,0,1,2.8.592,5.24,5.24,0,0,1,1.967,1.563,6.831,6.831,0,0,1,1.159,2.4A11.65,11.65,0,0,1,66,150.2h7.323a16.4,16.4,0,0,0-.9-5.795,12.107,12.107,0,0,0-2.717-4.417,11.9,11.9,0,0,0-4.372-2.806,16.542,16.542,0,0,0-5.881-.98,17.21,17.21,0,0,0-5.726.854,12.573,12.573,0,0,0-4.109,2.33,12.174,12.174,0,0,0-2.756,3.456,19.08,19.08,0,0,0-1.646,4.223,28.39,28.39,0,0,0-.8,4.64q-0.215,2.4-.214,4.708,0,1.728.068,3.534t0.292,3.582A30.3,30.3,0,0,0,45.215,167a16.978,16.978,0,0,0,1.13,3.2,13.134,13.134,0,0,0,1.763,2.776,10.277,10.277,0,0,0,2.522,2.185,12.521,12.521,0,0,0,3.408,1.427,17.361,17.361,0,0,0,4.431.514,11.716,11.716,0,0,0,2.736-.3,10.148,10.148,0,0,0,2.337-.864,10.3,10.3,0,0,0,2.016-1.378,15.058,15.058,0,0,0,1.772-1.845l0.682,3.767h5.726V154.938Zm15.949,21.551V136.823h-7.42v39.666h7.42Zm15.716,0V159.054l14.275-.078v-6.213H105.4v-9.707h15.307v-6.233H98.059v39.666H105.4Z"/>
</svg>
