<svg id="ic_file_JPG" xmlns="http://www.w3.org/2000/svg" width="161" height="198" viewBox="0 0 161 198">
  <defs>
    <style>
      .cls-1 {
        fill: #26b99a;
      }

      .cls-2 {
        fill: #fff;
        fill-rule: evenodd;
      }
    </style>
  </defs>
  <rect class="cls-1" x="-0.313" y="-0.188" width="161.313" height="200.531"/>
  <path class="cls-2" d="M25,104L66.356,68.634l13.7,13.4,24.975-28.4L130,76.672V104H25ZM55.211,33A11.387,11.387,0,1,1,43.8,44.387,11.4,11.4,0,0,1,55.211,33Z"/>
  <path id="JPG" class="cls-2" d="M34.922,162.956v2.8a18.985,18.985,0,0,0,.584,4.951,8.864,8.864,0,0,0,1.87,3.611,8,8,0,0,0,3.34,2.2,14.623,14.623,0,0,0,4.976.747,19.128,19.128,0,0,0,4.538-.5,8.406,8.406,0,0,0,3.535-1.767,8.254,8.254,0,0,0,2.288-3.408,15.455,15.455,0,0,0,.818-5.446V136.823H49.528v28.929a17.14,17.14,0,0,1-.107,1.932,4.743,4.743,0,0,1-.487,1.67,2.878,2.878,0,0,1-1.129,1.165,4.045,4.045,0,0,1-2.035.436,3.723,3.723,0,0,1-1.967-.436,2.7,2.7,0,0,1-1.042-1.165,4.853,4.853,0,0,1-.419-1.67q-0.078-.942-0.078-1.932v-2.8H34.922Zm36.866-19.9h3.739a24.659,24.659,0,0,1,3.437.116,8.432,8.432,0,0,1,2.814.767,4.671,4.671,0,0,1,1.909,1.679,5.2,5.2,0,0,1,.7,2.854,6.758,6.758,0,0,1-.614,3.214,4.231,4.231,0,0,1-1.831,1.815,8.455,8.455,0,0,1-2.892.825,34.1,34.1,0,0,1-3.759.223H71.788V143.056Zm0,33.433V160.7h3.739q2.415-.039,4.547-0.243A23.591,23.591,0,0,0,84,159.772a12.567,12.567,0,0,0,3.213-1.34,8.12,8.12,0,0,0,2.405-2.2,9.969,9.969,0,0,0,1.509-3.272,17.341,17.341,0,0,0,.526-4.543,12.451,12.451,0,0,0-1.052-5.388,9.629,9.629,0,0,0-2.863-3.582,11.689,11.689,0,0,0-4.255-2,21.129,21.129,0,0,0-5.229-.622H64.445v39.666h7.342Zm53.127-21.551H108.322v6.232h9.251a21.663,21.663,0,0,1-.4,3.553,8.711,8.711,0,0,1-1.187,3.029,6.233,6.233,0,0,1-2.3,2.116,7.753,7.753,0,0,1-3.749.8,5.755,5.755,0,0,1-5.024-2.524,8.994,8.994,0,0,1-1.237-2.631,20.55,20.55,0,0,1-.652-3.077,29.116,29.116,0,0,1-.253-3.174q-0.039-1.583-.039-2.922,0-1.418.068-3a24.975,24.975,0,0,1,.331-3.126,16.427,16.427,0,0,1,.779-2.941,7.986,7.986,0,0,1,1.422-2.456,6.371,6.371,0,0,1,2.259-1.67,7.553,7.553,0,0,1,3.281-.573,7,7,0,0,1,2.8.592,5.251,5.251,0,0,1,1.967,1.563,6.83,6.83,0,0,1,1.158,2.4,11.617,11.617,0,0,1,.38,3.077h7.323a16.4,16.4,0,0,0-.9-5.795,12.1,12.1,0,0,0-2.717-4.417,11.9,11.9,0,0,0-4.372-2.806,16.54,16.54,0,0,0-5.881-.98,17.211,17.211,0,0,0-5.726.854,12.566,12.566,0,0,0-4.109,2.33,12.168,12.168,0,0,0-2.756,3.456,19.081,19.081,0,0,0-1.646,4.223,28.4,28.4,0,0,0-.8,4.64q-0.215,2.4-.214,4.708,0,1.728.068,3.534t0.292,3.582A30.282,30.282,0,0,0,96.394,167a16.971,16.971,0,0,0,1.129,3.2,13.134,13.134,0,0,0,1.763,2.776,10.268,10.268,0,0,0,2.522,2.185,12.519,12.519,0,0,0,3.408,1.427,17.358,17.358,0,0,0,4.43.514,11.723,11.723,0,0,0,2.737-.3,10.162,10.162,0,0,0,2.337-.864,10.305,10.305,0,0,0,2.015-1.378,15.123,15.123,0,0,0,1.773-1.845l0.681,3.767h5.726V154.938Z"/>
</svg>
