<svg id="Layer_4" data-name="Layer 4" xmlns="http://www.w3.org/2000/svg" viewBox="0 0 47.17 31.83"><defs><style>.cls-1{fill:#fff;}.cls-2{fill:#f86f38;}</style></defs><title>ic_mp4</title><rect class="cls-1" x="7.4" y="4.01" width="36.59" height="23.34"/><rect class="cls-2" x="13.3" y="6.71" width="1.71" height="1"/><rect class="cls-2" x="17.12" y="24.12" width="1.71" height="1"/><rect class="cls-2" x="17.12" y="6.71" width="1.71" height="1"/><path class="cls-2" d="M535.22,172.13v5.51a0.25,0.25,0,0,0,.42.23l4.2-2.71a0.3,0.3,0,0,0,0-.54l-4.2-2.71A0.25,0.25,0,0,0,535.22,172.13Z" transform="translate(-514.03 -159.16)"/><rect class="cls-2" x="20.94" y="6.71" width="1.71" height="1"/><rect class="cls-2" x="13.3" y="24.12" width="1.71" height="1"/><rect class="cls-2" x="20.94" y="24.12" width="1.71" height="1"/><rect class="cls-2" x="24.76" y="6.71" width="1.71" height="1"/><rect class="cls-2" x="32.4" y="6.71" width="1.71" height="1"/><rect class="cls-2" x="32.4" y="24.12" width="1.71" height="1"/><path class="cls-2" d="M557.2,159.16H518a4,4,0,0,0-4,4V187a4,4,0,0,0,4,4H557.2a4,4,0,0,0,4-4V163.16A4,4,0,0,0,557.2,159.16Zm-7.58,25a1,1,0,0,1-1,1h-22a1,1,0,0,1-1-1V166a1,1,0,0,1,1-1h22a1,1,0,0,1,1,1v18.17Z" transform="translate(-514.03 -159.16)"/><rect class="cls-2" x="24.76" y="24.12" width="1.71" height="1"/><rect class="cls-2" x="28.58" y="6.71" width="1.71" height="1"/><rect class="cls-2" x="28.58" y="24.12" width="1.71" height="1"/></svg>