<svg id="ic_file_PDF" xmlns="http://www.w3.org/2000/svg" width="161" height="198" viewBox="0 0 161 198">
  <defs>
    <style>
      .cls-1 {
        fill: #d41a1a;
      }

      .cls-2 {
        fill: #fff;
        fill-rule: evenodd;
      }
    </style>
  </defs>
  <rect class="cls-1" x="-0.313" y="-0.188" width="161.313" height="200.531"/>
  <path class="cls-2" d="M47.721,104a7.5,7.5,0,0,1-5.09-2.222c-2.884-3.418-2.884-6.323-2.375-8.2A6.736,6.736,0,0,1,43.14,89.3a79.774,79.774,0,0,1,17.306-9.741A188.9,188.9,0,0,0,70.627,58.2,49.047,49.047,0,0,1,65.2,42.3a15.234,15.234,0,0,1,.509-6.836C67.4,30,71.135,29.828,72.662,30c0.34,0,6.278.854,7.3,9.4,0,0.342.679,5.811-3.9,18.628A59.228,59.228,0,0,0,89.29,73.75a77.777,77.777,0,0,1,19.173,2.222,7.211,7.211,0,0,1,3.9,2.393,6.373,6.373,0,0,1,1.187,6.665h0a7.11,7.11,0,0,1-1.357,2.393,6.524,6.524,0,0,1-8.314,1.88A90.219,90.219,0,0,1,87.594,78.536a70.927,70.927,0,0,0-23.415,4.956c-2.884,5.3-6.447,11.109-10.52,17.6a7.159,7.159,0,0,1-3.224,2.734h0C49.248,103.829,48.4,104,47.721,104Zm8.314-17.261a63.306,63.306,0,0,0-10.011,6.323A2.718,2.718,0,0,0,45.006,94.6c-0.339,1.2.17,2.393,1.357,3.76a2.4,2.4,0,0,0,2.036.513h0a1.4,1.4,0,0,0,.848-0.855C51.624,94.088,54,90.328,56.035,86.739Zm39.533-8.2a94.8,94.8,0,0,0,10.18,6.153,1.612,1.612,0,0,0,2.036-.513,4.748,4.748,0,0,0,.679-1.2c0.339-.855.339-1.2-0.17-1.709a3.272,3.272,0,0,0-1.527-.855A63.866,63.866,0,0,0,95.568,78.535ZM73.511,63.325c-1.7,3.931-3.733,8.374-6.447,13.5A76.946,76.946,0,0,1,81.995,73.75,85.249,85.249,0,0,1,73.511,63.325Zm-1.7-28.712c-0.679,0-1.188.684-1.7,2.222a10.279,10.279,0,0,0-.34,4.615,42.958,42.958,0,0,0,2.884,9.912c2.545-8.2,2.206-11.621,2.206-11.621-0.509-4.614-2.884-5.127-3.054-5.127h0Z"/>
  <path id="PDF" class="cls-2" d="M45.254,143.056h3.739a24.659,24.659,0,0,1,3.437.116,8.431,8.431,0,0,1,2.814.767,4.671,4.671,0,0,1,1.909,1.679,5.2,5.2,0,0,1,.7,2.854,6.758,6.758,0,0,1-.614,3.214A4.231,4.231,0,0,1,55.41,153.5a8.455,8.455,0,0,1-2.892.825,34.1,34.1,0,0,1-3.759.223H45.254V143.056Zm0,33.433V160.7h3.739q2.415-.039,4.547-0.243a23.591,23.591,0,0,0,3.924-.689,12.566,12.566,0,0,0,3.213-1.34,8.119,8.119,0,0,0,2.405-2.2,9.969,9.969,0,0,0,1.509-3.272,17.341,17.341,0,0,0,.526-4.543,12.451,12.451,0,0,0-1.052-5.388,9.628,9.628,0,0,0-2.863-3.582,11.689,11.689,0,0,0-4.255-2,21.129,21.129,0,0,0-5.229-.622H37.912v39.666h7.342Zm38.852,0a16.735,16.735,0,0,0,5.433-.8,11.942,11.942,0,0,0,6.729-5.514,18.747,18.747,0,0,0,1.714-4.116,26.486,26.486,0,0,0,.876-4.641Q99.1,159,99.1,156.569q0-2.5-.175-4.942a26.052,26.052,0,0,0-.74-4.63,16.688,16.688,0,0,0-1.617-4.058,10.769,10.769,0,0,0-2.795-3.223,13.01,13.01,0,0,0-4.294-2.126,21.338,21.338,0,0,0-6.1-.767H70.22v39.666H84.106ZM77.64,143.056h6.213a8.612,8.612,0,0,1,3.243.65,6.464,6.464,0,0,1,2.21,1.563,7.25,7.25,0,0,1,1.373,2.242,13.832,13.832,0,0,1,.74,2.68,20.944,20.944,0,0,1,.292,2.873q0.048,1.467.049,2.825a43.986,43.986,0,0,1-.419,6.553,14.184,14.184,0,0,1-1.353,4.485,6.1,6.1,0,0,1-2.444,2.582,7.6,7.6,0,0,1-3.69.825H77.64V143.056Zm35.5,33.433V159.054l14.275-.078v-6.213H113.142v-9.707H128.45v-6.233H105.8v39.666h7.342Z"/>
</svg>
