<svg id="ic_file_PNG" xmlns="http://www.w3.org/2000/svg" width="161" height="198" viewBox="0 0 161 198">
  <defs>
    <style>
      .cls-1 {
        fill: #26b9f1;
      }

      .cls-2 {
        fill: #fff;
        fill-rule: evenodd;
      }
    </style>
  </defs>
  <rect class="cls-1" x="-0.313" y="-0.188" width="161.313" height="200.531"/>
  <path class="cls-2" d="M25,104L66.356,68.634l13.7,13.4,24.975-28.4L130,76.672V104H25ZM55.211,33A11.387,11.387,0,1,1,43.8,44.387,11.4,11.4,0,0,1,55.211,33Z"/>
  <path id="PNG" class="cls-2" d="M40.638,143.056h3.739a24.659,24.659,0,0,1,3.437.116,8.431,8.431,0,0,1,2.814.767,4.671,4.671,0,0,1,1.909,1.679,5.2,5.2,0,0,1,.7,2.854,6.758,6.758,0,0,1-.613,3.214,4.231,4.231,0,0,1-1.831,1.815,8.455,8.455,0,0,1-2.892.825,34.1,34.1,0,0,1-3.759.223H40.638V143.056Zm0,33.433V160.7h3.739q2.415-.039,4.547-0.243a23.591,23.591,0,0,0,3.924-.689,12.566,12.566,0,0,0,3.213-1.34,8.119,8.119,0,0,0,2.405-2.2,9.969,9.969,0,0,0,1.509-3.272,17.341,17.341,0,0,0,.526-4.543,12.451,12.451,0,0,0-1.052-5.388,9.628,9.628,0,0,0-2.863-3.582,11.689,11.689,0,0,0-4.255-2,21.129,21.129,0,0,0-5.229-.622H33.3v39.666h7.342Zm25.044-39.666v39.666h7.342V154.064l-0.292-9.048,2.473,8.174,8.978,23.3h9.893V136.823H86.735v23.3l0.292,8.271-2.337-7.514L75.5,136.823H65.682Zm64.131,18.115H113.22v6.232h9.251a21.664,21.664,0,0,1-.4,3.553,8.732,8.732,0,0,1-1.188,3.029,6.238,6.238,0,0,1-2.3,2.116,7.758,7.758,0,0,1-3.749.8,5.755,5.755,0,0,1-5.025-2.524,9.045,9.045,0,0,1-1.237-2.631,20.55,20.55,0,0,1-.652-3.077,29.116,29.116,0,0,1-.253-3.174q-0.039-1.583-.039-2.922,0-1.418.068-3a24.975,24.975,0,0,1,.331-3.126,16.427,16.427,0,0,1,.779-2.941,7.986,7.986,0,0,1,1.422-2.456,6.379,6.379,0,0,1,2.259-1.67,7.553,7.553,0,0,1,3.281-.573,7,7,0,0,1,2.8.592,5.243,5.243,0,0,1,1.967,1.563,6.848,6.848,0,0,1,1.159,2.4,11.66,11.66,0,0,1,.379,3.077H129.4a16.4,16.4,0,0,0-.9-5.795,12.1,12.1,0,0,0-2.717-4.417,11.9,11.9,0,0,0-4.372-2.806,16.54,16.54,0,0,0-5.881-.98,17.211,17.211,0,0,0-5.726.854,12.566,12.566,0,0,0-4.109,2.33,12.175,12.175,0,0,0-2.756,3.456,19.1,19.1,0,0,0-1.646,4.223,28.476,28.476,0,0,0-.8,4.64q-0.215,2.4-.214,4.708,0,1.728.068,3.534t0.292,3.582a30.132,30.132,0,0,0,.643,3.475,16.977,16.977,0,0,0,1.129,3.2,13.148,13.148,0,0,0,1.763,2.776,10.264,10.264,0,0,0,2.522,2.185,12.519,12.519,0,0,0,3.408,1.427,17.361,17.361,0,0,0,4.431.514,11.72,11.72,0,0,0,2.736-.3,10.162,10.162,0,0,0,2.337-.864,10.305,10.305,0,0,0,2.015-1.378,15.048,15.048,0,0,0,1.773-1.845l0.681,3.767h5.726V154.938Z"/>
</svg>
