<svg id="ic_file_PPT" xmlns="http://www.w3.org/2000/svg" width="161" height="198" viewBox="0 0 161 198">
  <defs>
    <style>
      .cls-1 {
        fill: #cb4a32;
      }

      .cls-2 {
        fill: #fff;
        fill-rule: evenodd;
      }
    </style>
  </defs>
  <rect class="cls-1" x="-0.313" y="-0.188" width="161.313" height="200.531"/>
  <path class="cls-2" d="M112.07,83.779v7.007H80.918V83.779H112.07Zm0-11.679v7.007H80.918V72.1H112.07ZM93.082,42.163a12.211,12.211,0,1,0,12.164,12.211H93.082V42.163Zm2.33-2.227V52.148h12.164A12.187,12.187,0,0,0,95.412,39.937ZM34,33.3v73.352L87.768,116V25ZM72.535,65.178a8.959,8.959,0,0,1-1.345,2.935,7.249,7.249,0,0,1-2.143,1.977,11.131,11.131,0,0,1-2.862,1.2,20.831,20.831,0,0,1-3.5.618q-1.9.184-4.052,0.218H55.305V86.289H48.765V50.7h12.3a18.752,18.752,0,0,1,4.66.557,10.4,10.4,0,0,1,3.791,1.794,8.627,8.627,0,0,1,2.551,3.213A11.235,11.235,0,0,1,73,61.1,15.671,15.671,0,0,1,72.535,65.178Zm-8.328-8.09A7.462,7.462,0,0,0,61.7,56.4a21.791,21.791,0,0,0-3.063-.1H55.305V66.606h3.123a30.035,30.035,0,0,0,3.349-.2,7.458,7.458,0,0,0,2.576-.74,3.777,3.777,0,0,0,1.631-1.629,6.09,6.09,0,0,0,.547-2.882,4.686,4.686,0,0,0-.625-2.56A4.159,4.159,0,0,0,64.207,57.088Zm53.461-24.205h-29.9V35.8h29.9a2.431,2.431,0,0,1,2.424,2.433V100a2.431,2.431,0,0,1-2.424,2.433h-29.9v2.92h29.9A5.349,5.349,0,0,0,123,100V38.236A5.349,5.349,0,0,0,117.668,32.883Z"/>
  <path id="PPT" class="cls-2" d="M45.741,143.056H49.48a24.659,24.659,0,0,1,3.437.116,8.431,8.431,0,0,1,2.814.767,4.671,4.671,0,0,1,1.909,1.679,5.2,5.2,0,0,1,.7,2.854,6.758,6.758,0,0,1-.613,3.214A4.231,4.231,0,0,1,55.9,153.5a8.455,8.455,0,0,1-2.892.825,34.1,34.1,0,0,1-3.759.223H45.741V143.056Zm0,33.433V160.7H49.48q2.415-.039,4.547-0.243a23.591,23.591,0,0,0,3.924-.689,12.566,12.566,0,0,0,3.213-1.34,8.119,8.119,0,0,0,2.405-2.2,9.969,9.969,0,0,0,1.509-3.272,17.341,17.341,0,0,0,.526-4.543,12.451,12.451,0,0,0-1.052-5.388,9.629,9.629,0,0,0-2.863-3.582,11.689,11.689,0,0,0-4.255-2,21.129,21.129,0,0,0-5.229-.622H38.4v39.666h7.342Zm32.386-33.433h3.739a24.658,24.658,0,0,1,3.437.116,8.432,8.432,0,0,1,2.814.767,4.671,4.671,0,0,1,1.908,1.679,5.2,5.2,0,0,1,.7,2.854,6.759,6.759,0,0,1-.613,3.214,4.231,4.231,0,0,1-1.831,1.815,8.455,8.455,0,0,1-2.892.825,34.1,34.1,0,0,1-3.759.223H78.127V143.056Zm0,33.433V160.7h3.739q2.415-.039,4.547-0.243a23.587,23.587,0,0,0,3.924-.689,12.566,12.566,0,0,0,3.213-1.34,8.12,8.12,0,0,0,2.405-2.2,9.968,9.968,0,0,0,1.509-3.272,17.337,17.337,0,0,0,.526-4.543,12.451,12.451,0,0,0-1.052-5.388,9.628,9.628,0,0,0-2.863-3.582,11.687,11.687,0,0,0-4.255-2,21.128,21.128,0,0,0-5.229-.622H70.785v39.666h7.342Zm22.181-33.356h10.049v33.356h7.42V143.133h9.894v-6.31H100.308v6.31Z"/>
</svg>
