<svg id="ic_file_VDO" xmlns="http://www.w3.org/2000/svg" width="161" height="198" viewBox="0 0 161 198">
  <defs>
    <style>
      .cls-1 {
        fill: #2d2e2e;
      }

      .cls-2, .cls-4 {
        fill: none;
        stroke: #fff;
      }

      .cls-2 {
        stroke-width: 4px;
      }

      .cls-2, .cls-3, .cls-4 {
        fill-rule: evenodd;
      }

      .cls-3 {
        fill: #fff;
      }

      .cls-4 {
        stroke-width: 6px;
      }
    </style>
  </defs>
  <rect class="cls-1" x="-0.313" y="-0.188" width="161.313" height="200.531"/>
  <g id="ic_vdo">
    <path class="cls-2" d="M27,73H136"/>
    <path class="cls-2" d="M81,56V74"/>
    <path id="Shape_953_copy" data-name="Shape 953 copy" class="cls-2" d="M81,126v18"/>
    <path id="Shape_953_copy_2" data-name="Shape 953 copy 2" class="cls-2" d="M51,56V74"/>
    <path id="Shape_953_copy_2-2" data-name="Shape 953 copy 2" class="cls-2" d="M51,126v18"/>
    <path id="Shape_953_copy_3" data-name="Shape 953 copy 3" class="cls-2" d="M111,56V74"/>
    <path id="Shape_953_copy_3-2" data-name="Shape 953 copy 3" class="cls-2" d="M111,126v18"/>
    <path id="Shape_952_copy" data-name="Shape 952 copy" class="cls-2" d="M27,124H136"/>
    <path class="cls-3" d="M97,99.5L69,114V85Z"/>
    <path id="Rounded_Rectangle_1" data-name="Rounded Rectangle 1" class="cls-4" d="M34,56h93a8,8,0,0,1,8,8v71a8,8,0,0,1-8,8H34a8,8,0,0,1-8-8V64A8,8,0,0,1,34,56Z"/>
  </g>
</svg>
