<svg id="ic_file_XLS" xmlns="http://www.w3.org/2000/svg" width="161" height="198" viewBox="0 0 161 198">
  <defs>
    <style>
      .cls-1 {
        fill: #1f744b;
      }

      .cls-2 {
        fill: #fff;
        fill-rule: evenodd;
      }
    </style>
  </defs>
  <rect class="cls-1" x="-0.313" y="-0.188" width="161.313" height="200.531"/>
  <path class="cls-2" d="M56.477,53.633H43.639v6.545H56.477V53.633Zm0-10.665H43.639v6.545H56.477V42.968Zm0,32.481H43.639v6.545H56.477V75.449Zm0-10.665H43.639v6.545H56.477V64.783Zm-12.6,26.906H56.719V85.145H43.882v6.545ZM67.619,26V42.968H61.2v6.545h6.419v4.121H61.2v6.545h6.419v4.606H61.2v6.545h6.419v4.121H61.2v6.545h6.419v3.151H61.442v6.545h6.176V111L118,102.274V33.757ZM98.037,81.324l-5.813-9.476-5.737,9.476H79.044l9.545-14.9L79.271,51.987h7.367l5.586,9.457,5.662-9.457h7.291L95.88,66.5l9.525,14.82H98.037Zm-30.176,17.4H39.844a2.911,2.911,0,0,1-2.907-2.909V38.6A2.911,2.911,0,0,1,39.844,35.7H67.861V33.757H39.844A4.852,4.852,0,0,0,35,38.6V95.81a4.852,4.852,0,0,0,4.844,4.848H67.861V98.719Z"/>
  <path id="XLS" class="cls-2" d="M33.939,176.489h8.686l7.985-14.076L58.5,176.489h8.939L54.913,155.967l12.211-19.144H58.419L50.765,149.89l-7.809-13.067H34.25l12.367,19.3Zm62.047,0v-6.233H79V136.823H71.661v39.666H95.986Zm30.167-27.376a14.947,14.947,0,0,0-.653-5.757,9.79,9.79,0,0,0-2.6-4.077,11.207,11.207,0,0,0-4.314-2.427,19.136,19.136,0,0,0-5.754-.805,16.334,16.334,0,0,0-5.259.815,12.518,12.518,0,0,0-4.167,2.31,10.613,10.613,0,0,0-2.746,3.612,10.917,10.917,0,0,0-.994,4.7,13.975,13.975,0,0,0,.282,2.9,7.992,7.992,0,0,0,.954,2.456,7.885,7.885,0,0,0,1.792,2.048,12.429,12.429,0,0,0,2.8,1.68q0.934,0.407,2.064.825t2.376,0.825q1.246,0.408,2.561.835t2.639,0.873q1.11,0.369,2.035.777a5.73,5.73,0,0,1,1.587,1.019,4.189,4.189,0,0,1,1.032,1.524,6.073,6.073,0,0,1,.37,2.272,4.875,4.875,0,0,1-.516,2.3,4.69,4.69,0,0,1-1.412,1.631,6.28,6.28,0,0,1-2.1.97,10.053,10.053,0,0,1-2.59.321,10.207,10.207,0,0,1-3.457-.495,4.525,4.525,0,0,1-2.123-1.515,5.967,5.967,0,0,1-1.052-2.553,17.546,17.546,0,0,1-.224-3.611h-7.5a20.528,20.528,0,0,0,.662,6.611,10.466,10.466,0,0,0,2.6,4.543,10.755,10.755,0,0,0,4.547,2.621,22.525,22.525,0,0,0,6.544.845,18.863,18.863,0,0,0,5.92-.855,12.14,12.14,0,0,0,4.382-2.465,10.488,10.488,0,0,0,2.727-3.932,14.01,14.01,0,0,0,.934-5.271,10.221,10.221,0,0,0-.525-3.311,8.132,8.132,0,0,0-1.744-2.873,12.918,12.918,0,0,0-3.213-2.456,27.878,27.878,0,0,0-4.956-2.1l-6.7-2.174a6.3,6.3,0,0,1-1.314-.612,4.507,4.507,0,0,1-1.071-.912,3.956,3.956,0,0,1-.711-1.214,4.364,4.364,0,0,1-.253-1.534,6.473,6.473,0,0,1,.272-1.864,4.184,4.184,0,0,1,.925-1.631,4.581,4.581,0,0,1,1.724-1.145,7.176,7.176,0,0,1,2.648-.427,8.872,8.872,0,0,1,3.165.485,4.648,4.648,0,0,1,1.977,1.369,4.909,4.909,0,0,1,.983,2.116,10.442,10.442,0,0,1,.185,2.728h7.265Z"/>
</svg>
