<svg id="ic_file_ZIP" xmlns="http://www.w3.org/2000/svg" width="161" height="198" viewBox="0 0 161 198">
  <defs>
    <style>
      .cls-1 {
        fill: #003071;
      }

      .cls-2, .cls-4 {
        fill: #fff;
      }

      .cls-3 {
        fill: none;
        stroke: #fff;
        stroke-width: 8px;
      }

      .cls-4 {
        fill-rule: evenodd;
      }
    </style>
  </defs>
  <rect class="cls-1" x="-0.313" y="-0.188" width="161.313" height="200.531"/>
  <rect class="cls-2" x="65" y="98.563" width="32" height="11.594"/>
  <rect id="Rectangle_2_copy" data-name="Rectangle 2 copy" class="cls-2" x="65" y="76.875" width="32" height="11.563"/>
  <rect id="Rectangle_2_copy_2" data-name="Rectangle 2 copy 2" class="cls-2" x="75.188" y="56.625" width="11.625" height="64.375"/>
  <rect class="cls-3" x="68.625" y="19" width="25.469" height="41.969"/>
  <path id="ZIP" class="cls-4" d="M69.986,178.282v-5.017H49.506l20.147-30.534v-4.488H43.332v5.095H62.911L42.764,173.892v4.39H69.986Zm12.837,0V138.243H76.727v40.039h6.095Zm14.934-34.944h4.566a26.587,26.587,0,0,1,3.822.147,8.628,8.628,0,0,1,3.057.892,5.011,5.011,0,0,1,2.029,1.96,6.716,6.716,0,0,1,.735,3.371,10.376,10.376,0,0,1-.275,2.7,5.325,5.325,0,0,1-.882,1.911,4.664,4.664,0,0,1-1.44,1.254,7.258,7.258,0,0,1-1.96.735,16.154,16.154,0,0,1-2.44.353q-1.334.1-2.881,0.118H97.756V143.338Zm0,34.944V161.8h2.411q2.605-.019,4.958-0.2a29.409,29.409,0,0,0,4.36-.637,14.92,14.92,0,0,0,3.616-1.3,9.077,9.077,0,0,0,2.744-2.186,9.427,9.427,0,0,0,1.754-3.272,15.082,15.082,0,0,0,.617-4.577,11.938,11.938,0,0,0-.548-3.753,9.63,9.63,0,0,0-3.822-5.085,12.791,12.791,0,0,0-2.91-1.46,17.91,17.91,0,0,0-3.342-.823,24.058,24.058,0,0,0-3.586-.265H91.661v40.039h6.095Z"/>
</svg>
